solid OpenSCAD_Model
  facet normal 0 -1 0
    outer loop
      vertex 73.3333 0 16.6667
      vertex 75.3333 0 16.6667
      vertex 0 0 18.6667
    endloop
  endfacet
  facet normal 0 -1 0
    outer loop
      vertex 0 0 18.6667
      vertex 0 0 16.6667
      vertex 36.6667 0 16.6667
    endloop
  endfacet
  facet normal 0 -1 0
    outer loop
      vertex 38.6667 0 16.6667
      vertex 0 0 18.6667
      vertex 36.6667 0 16.6667
    endloop
  endfacet
  facet normal 0 -1 0
    outer loop
      vertex 36.6667 0 -2
      vertex 38.6667 0 -2
      vertex 36.6667 0 16.6667
    endloop
  endfacet
  facet normal 0 -1 0
    outer loop
      vertex 38.6667 0 -2
      vertex 38.6667 0 16.6667
      vertex 36.6667 0 16.6667
    endloop
  endfacet
  facet normal 0 -1 0
    outer loop
      vertex 49.1692 0 23.1498
      vertex 48.723 0 25.0326
      vertex 36.6667 0 18.6667
    endloop
  endfacet
  facet normal 0 -1 0
    outer loop
      vertex 38.6667 0 16.6667
      vertex 73.3333 0 16.6667
      vertex 0 0 18.6667
    endloop
  endfacet
  facet normal 0 -1 0
    outer loop
      vertex 73.3333 0 -2
      vertex 75.3333 0 -2
      vertex 73.3333 0 16.6667
    endloop
  endfacet
  facet normal 0 -1 0
    outer loop
      vertex 75.3333 0 -2
      vertex 75.3333 0 16.6667
      vertex 73.3333 0 16.6667
    endloop
  endfacet
  facet normal 0 -1 0
    outer loop
      vertex 75.3333 0 16.6667
      vertex 114 0 16.6667
      vertex 0 0 18.6667
    endloop
  endfacet
  facet normal 0 -1 0
    outer loop
      vertex 114 0 16.6667
      vertex 114 0 18.6667
      vertex 75.3333 0 18.6667
    endloop
  endfacet
  facet normal 0 -1 0
    outer loop
      vertex 63.3837 0 31.3566
      vertex 75.3333 0 33.3333
      vertex 75.3333 0 35.3333
    endloop
  endfacet
  facet normal 0 -1 0
    outer loop
      vertex 75.3333 0 33.3333
      vertex 114 0 33.3333
      vertex 114 0 35.3333
    endloop
  endfacet
  facet normal 0 -1 0
    outer loop
      vertex 73.3333 0 35.3333
      vertex 75.3333 0 35.3333
      vertex 75.3333 0 52
    endloop
  endfacet
  facet normal 0 -1 0
    outer loop
      vertex 75.3333 0 33.3333
      vertex 114 0 35.3333
      vertex 75.3333 0 35.3333
    endloop
  endfacet
  facet normal 0 -1 0
    outer loop
      vertex 0 0 33.3333
      vertex 36.6667 0 33.3333
      vertex 38.6667 0 35.3333
    endloop
  endfacet
  facet normal 0 -1 0
    outer loop
      vertex 38.6667 0 35.3333
      vertex 38.6667 0 52
      vertex 36.6667 0 35.3333
    endloop
  endfacet
  facet normal 0 -1 0
    outer loop
      vertex 61.9763 0 32.6844
      vertex 75.3333 0 35.3333
      vertex 73.3333 0 35.3333
    endloop
  endfacet
  facet normal 0 -1 0
    outer loop
      vertex 36.6667 0 33.3333
      vertex 73.3333 0 35.3333
      vertex 38.6667 0 35.3333
    endloop
  endfacet
  facet normal 0 -1 0
    outer loop
      vertex 36.6667 0 52
      vertex 36.6667 0 35.3333
      vertex 38.6667 0 52
    endloop
  endfacet
  facet normal 0 -1 0
    outer loop
      vertex 0 0 33.3333
      vertex 38.6667 0 35.3333
      vertex 36.6667 0 35.3333
    endloop
  endfacet
  facet normal 0 -1 0
    outer loop
      vertex 56.5155 0 34.3192
      vertex 73.3333 0 35.3333
      vertex 36.6667 0 33.3333
    endloop
  endfacet
  facet normal 0 -1 0
    outer loop
      vertex 54.61 0 18.0168
      vertex 52.8333 0 18.7831
      vertex 36.6667 0 18.6667
    endloop
  endfacet
  facet normal 0 -1 0
    outer loop
      vertex 60.3007 0 33.6518
      vertex 61.9763 0 32.6844
      vertex 73.3333 0 35.3333
    endloop
  endfacet
  facet normal 0 -1 0
    outer loop
      vertex 64.4469 0 29.74
      vertex 65.1087 0 27.9218
      vertex 75.3333 0 33.3333
    endloop
  endfacet
  facet normal 0 -1 0
    outer loop
      vertex 63.3837 0 31.3566
      vertex 64.4469 0 29.74
      vertex 75.3333 0 33.3333
    endloop
  endfacet
  facet normal 0 -1 0
    outer loop
      vertex 50.0376 0 30.5792
      vertex 51.2813 0 32.0614
      vertex 36.6667 0 33.3333
    endloop
  endfacet
  facet normal 0 -1 0
    outer loop
      vertex 61.9763 0 32.6844
      vertex 63.3837 0 31.3566
      vertex 75.3333 0 35.3333
    endloop
  endfacet
  facet normal 0 -1 0
    outer loop
      vertex 51.2813 0 32.0614
      vertex 52.8333 0 33.2169
      vertex 36.6667 0 33.3333
    endloop
  endfacet
  facet normal 0 -1 0
    outer loop
      vertex 52.8333 0 33.2169
      vertex 54.61 0 33.9832
      vertex 36.6667 0 33.3333
    endloop
  endfacet
  facet normal 0 -1 0
    outer loop
      vertex 54.61 0 33.9832
      vertex 56.5155 0 34.3192
      vertex 36.6667 0 33.3333
    endloop
  endfacet
  facet normal 0 -1 0
    outer loop
      vertex 58.4471 0 34.2067
      vertex 60.3007 0 33.6518
      vertex 73.3333 0 35.3333
    endloop
  endfacet
  facet normal 0 -1 0
    outer loop
      vertex 56.5155 0 34.3192
      vertex 58.4471 0 34.2067
      vertex 73.3333 0 35.3333
    endloop
  endfacet
  facet normal 0 -1 0
    outer loop
      vertex 75.3333 0 18.6667
      vertex 75.3333 0 33.3333
      vertex 65.1087 0 27.9218
    endloop
  endfacet
  facet normal 0 -1 0
    outer loop
      vertex 75.3333 0 18.6667
      vertex 65.1087 0 27.9218
      vertex 65.3333 0 26
    endloop
  endfacet
  facet normal 0 -1 0
    outer loop
      vertex 75.3333 0 18.6667
      vertex 65.3333 0 26
      vertex 65.1087 0 24.0782
    endloop
  endfacet
  facet normal 0 -1 0
    outer loop
      vertex 50.0376 0 21.4208
      vertex 49.1692 0 23.1498
      vertex 36.6667 0 18.6667
    endloop
  endfacet
  facet normal 0 -1 0
    outer loop
      vertex 75.3333 0 18.6667
      vertex 65.1087 0 24.0782
      vertex 64.4469 0 22.26
    endloop
  endfacet
  facet normal 0 -1 0
    outer loop
      vertex 75.3333 0 18.6667
      vertex 64.4469 0 22.26
      vertex 63.3837 0 20.6434
    endloop
  endfacet
  facet normal 0 -1 0
    outer loop
      vertex 51.2813 0 19.9386
      vertex 50.0376 0 21.4208
      vertex 36.6667 0 18.6667
    endloop
  endfacet
  facet normal 0 -1 0
    outer loop
      vertex 75.3333 0 18.6667
      vertex 63.3837 0 20.6434
      vertex 61.9763 0 19.3156
    endloop
  endfacet
  facet normal 0 -1 0
    outer loop
      vertex 56.5155 0 17.6808
      vertex 54.61 0 18.0168
      vertex 36.6667 0 18.6667
    endloop
  endfacet
  facet normal 0 -1 0
    outer loop
      vertex 114 0 16.6667
      vertex 75.3333 0 18.6667
      vertex 60.3007 0 18.3482
    endloop
  endfacet
  facet normal 0 -1 0
    outer loop
      vertex 52.8333 0 18.7831
      vertex 51.2813 0 19.9386
      vertex 36.6667 0 18.6667
    endloop
  endfacet
  facet normal 0 -1 0
    outer loop
      vertex 114 0 16.6667
      vertex 56.5155 0 17.6808
      vertex 0 0 18.6667
    endloop
  endfacet
  facet normal 0 -1 0
    outer loop
      vertex 114 0 16.6667
      vertex 58.4471 0 17.7933
      vertex 56.5155 0 17.6808
    endloop
  endfacet
  facet normal 0 -1 0
    outer loop
      vertex 56.5155 0 17.6808
      vertex 36.6667 0 18.6667
      vertex 0 0 18.6667
    endloop
  endfacet
  facet normal 0 -1 0
    outer loop
      vertex 60.3007 0 18.3482
      vertex 58.4471 0 17.7933
      vertex 114 0 16.6667
    endloop
  endfacet
  facet normal 0 -1 0
    outer loop
      vertex 36.6667 0 35.3333
      vertex 0 0 35.3333
      vertex 0 0 33.3333
    endloop
  endfacet
  facet normal 0 -1 0
    outer loop
      vertex 73.3333 0 52
      vertex 73.3333 0 35.3333
      vertex 75.3333 0 52
    endloop
  endfacet
  facet normal 0 -1 0
    outer loop
      vertex 36.6667 0 33.3333
      vertex 49.1692 0 28.8502
      vertex 50.0376 0 30.5792
    endloop
  endfacet
  facet normal 0 -1 0
    outer loop
      vertex 61.9763 0 19.3156
      vertex 60.3007 0 18.3482
      vertex 75.3333 0 18.6667
    endloop
  endfacet
  facet normal 0 -1 0
    outer loop
      vertex 36.6667 0 33.3333
      vertex 48.723 0 26.9674
      vertex 49.1692 0 28.8502
    endloop
  endfacet
  facet normal 0 -1 0
    outer loop
      vertex 36.6667 0 33.3333
      vertex 48.723 0 25.0326
      vertex 48.723 0 26.9674
    endloop
  endfacet
  facet normal 0 -1 0
    outer loop
      vertex 36.6667 0 33.3333
      vertex 36.6667 0 18.6667
      vertex 48.723 0 25.0326
    endloop
  endfacet
  facet normal 0 0 -1
    outer loop
      vertex 2 2 16.6667
      vertex 0 0 16.6667
      vertex 2 8 16.6667
    endloop
  endfacet
  facet normal 0 0 -1
    outer loop
      vertex 2 8 16.6667
      vertex 0 10 16.6667
      vertex 4 8 16.6667
    endloop
  endfacet
  facet normal 0 0 -1
    outer loop
      vertex 0 0 16.6667
      vertex 0 10 16.6667
      vertex 2 8 16.6667
    endloop
  endfacet
  facet normal 0 0 -1
    outer loop
      vertex 36.6667 2 16.6667
      vertex 36.6667 0 16.6667
      vertex 2 2 16.6667
    endloop
  endfacet
  facet normal 0 0 -1
    outer loop
      vertex 0 0 16.6667
      vertex 2 2 16.6667
      vertex 36.6667 0 16.6667
    endloop
  endfacet
  facet normal 0 0 -1
    outer loop
      vertex 4 8 16.6667
      vertex 0 10 16.6667
      vertex 4 10 16.6667
    endloop
  endfacet
  facet normal -1 0 0
    outer loop
      vertex 0 0 16.6667
      vertex 0 0 18.6667
      vertex 0 10 16.6667
    endloop
  endfacet
  facet normal -1 0 0
    outer loop
      vertex 0 10 16.6667
      vertex 0 0 18.6667
      vertex 0 10 18.6667
    endloop
  endfacet
  facet normal 0 0 1
    outer loop
      vertex 2 2 18.6667
      vertex 0 0 18.6667
      vertex 36.6667 0 18.6667
    endloop
  endfacet
  facet normal 0 0 1
    outer loop
      vertex 0 10 18.6667
      vertex 0 0 18.6667
      vertex 2 2 18.6667
    endloop
  endfacet
  facet normal 0 0 1
    outer loop
      vertex 4 8 18.6667
      vertex 4 10 18.6667
      vertex 0 10 18.6667
    endloop
  endfacet
  facet normal 0 0 1
    outer loop
      vertex 0 10 18.6667
      vertex 2 2 18.6667
      vertex 2 8 18.6667
    endloop
  endfacet
  facet normal 0 0 1
    outer loop
      vertex 0 10 18.6667
      vertex 2 8 18.6667
      vertex 4 8 18.6667
    endloop
  endfacet
  facet normal 0 0 1
    outer loop
      vertex 36.6667 2 18.6667
      vertex 2 2 18.6667
      vertex 36.6667 0 18.6667
    endloop
  endfacet
  facet normal -1 0 0
    outer loop
      vertex 36.6667 0 18.6667
      vertex 36.6667 0 33.3333
      vertex 36.6667 2 18.6667
    endloop
  endfacet
  facet normal -1 0 0
    outer loop
      vertex 36.6667 2 18.6667
      vertex 36.6667 0 33.3333
      vertex 36.6667 2 33.3333
    endloop
  endfacet
  facet normal 0 0 -1
    outer loop
      vertex 2 2 33.3333
      vertex 0 0 33.3333
      vertex 2 8 33.3333
    endloop
  endfacet
  facet normal 0 0 -1
    outer loop
      vertex 2 8 33.3333
      vertex 0 10 33.3333
      vertex 4 8 33.3333
    endloop
  endfacet
  facet normal 0 0 -1
    outer loop
      vertex 0 0 33.3333
      vertex 0 10 33.3333
      vertex 2 8 33.3333
    endloop
  endfacet
  facet normal 0 0 -1
    outer loop
      vertex 36.6667 2 33.3333
      vertex 36.6667 0 33.3333
      vertex 2 2 33.3333
    endloop
  endfacet
  facet normal 0 0 -1
    outer loop
      vertex 0 0 33.3333
      vertex 2 2 33.3333
      vertex 36.6667 0 33.3333
    endloop
  endfacet
  facet normal 0 0 -1
    outer loop
      vertex 4 8 33.3333
      vertex 0 10 33.3333
      vertex 4 10 33.3333
    endloop
  endfacet
  facet normal -1 0 0
    outer loop
      vertex 0 0 33.3333
      vertex 0 0 35.3333
      vertex 0 10 33.3333
    endloop
  endfacet
  facet normal -1 0 0
    outer loop
      vertex 0 10 33.3333
      vertex 0 0 35.3333
      vertex 0 10 35.3333
    endloop
  endfacet
  facet normal 0 0 1
    outer loop
      vertex 2 2 35.3333
      vertex 0 0 35.3333
      vertex 36.6667 0 35.3333
    endloop
  endfacet
  facet normal 0 0 1
    outer loop
      vertex 0 10 35.3333
      vertex 0 0 35.3333
      vertex 2 2 35.3333
    endloop
  endfacet
  facet normal 0 0 1
    outer loop
      vertex 4 8 35.3333
      vertex 4 10 35.3333
      vertex 0 10 35.3333
    endloop
  endfacet
  facet normal 0 0 1
    outer loop
      vertex 0 10 35.3333
      vertex 2 2 35.3333
      vertex 2 8 35.3333
    endloop
  endfacet
  facet normal 0 0 1
    outer loop
      vertex 0 10 35.3333
      vertex 2 8 35.3333
      vertex 4 8 35.3333
    endloop
  endfacet
  facet normal 0 0 1
    outer loop
      vertex 36.6667 2 35.3333
      vertex 2 2 35.3333
      vertex 36.6667 0 35.3333
    endloop
  endfacet
  facet normal -1 0 -6.12303e-017
    outer loop
      vertex 36.6667 2 35.3333
      vertex 36.6667 0 35.3333
      vertex 36.6667 2 50
    endloop
  endfacet
  facet normal -1 0 -6.12303e-017
    outer loop
      vertex 36.6667 8 48
      vertex 36.6667 10 52
      vertex 36.6667 10 48
    endloop
  endfacet
  facet normal -1 0 -6.12303e-017
    outer loop
      vertex 36.6667 0 52
      vertex 36.6667 10 52
      vertex 36.6667 8 50
    endloop
  endfacet
  facet normal -1 0 -6.12303e-017
    outer loop
      vertex 36.6667 0 52
      vertex 36.6667 8 50
      vertex 36.6667 2 50
    endloop
  endfacet
  facet normal -1 0 -6.12303e-017
    outer loop
      vertex 36.6667 0 52
      vertex 36.6667 2 50
      vertex 36.6667 0 35.3333
    endloop
  endfacet
  facet normal -1 0 -6.12303e-017
    outer loop
      vertex 36.6667 8 50
      vertex 36.6667 10 52
      vertex 36.6667 8 48
    endloop
  endfacet
  facet normal -6.12303e-017 0 1
    outer loop
      vertex 36.6667 10 52
      vertex 36.6667 0 52
      vertex 38.6667 0 52
    endloop
  endfacet
  facet normal -6.12303e-017 0 1
    outer loop
      vertex 38.6667 10 52
      vertex 36.6667 10 52
      vertex 38.6667 0 52
    endloop
  endfacet
  facet normal 1 0 6.12303e-017
    outer loop
      vertex 38.6667 2 50
      vertex 38.6667 0 52
      vertex 38.6667 0 35.3333
    endloop
  endfacet
  facet normal 1 0 6.12303e-017
    outer loop
      vertex 38.6667 10 52
      vertex 38.6667 0 52
      vertex 38.6667 2 50
    endloop
  endfacet
  facet normal 1 0 6.12303e-017
    outer loop
      vertex 38.6667 8 48
      vertex 38.6667 10 48
      vertex 38.6667 10 52
    endloop
  endfacet
  facet normal 1 0 6.12303e-017
    outer loop
      vertex 38.6667 10 52
      vertex 38.6667 2 50
      vertex 38.6667 8 50
    endloop
  endfacet
  facet normal 1 0 6.12303e-017
    outer loop
      vertex 38.6667 8 50
      vertex 38.6667 8 48
      vertex 38.6667 10 52
    endloop
  endfacet
  facet normal 1 0 6.12303e-017
    outer loop
      vertex 38.6667 2 35.3333
      vertex 38.6667 2 50
      vertex 38.6667 0 35.3333
    endloop
  endfacet
  facet normal 0 0 1
    outer loop
      vertex 38.6667 2 35.3333
      vertex 38.6667 0 35.3333
      vertex 73.3333 0 35.3333
    endloop
  endfacet
  facet normal 0 0 1
    outer loop
      vertex 73.3333 2 35.3333
      vertex 38.6667 2 35.3333
      vertex 73.3333 0 35.3333
    endloop
  endfacet
  facet normal -1 0 -6.12303e-017
    outer loop
      vertex 73.3333 2 35.3333
      vertex 73.3333 0 35.3333
      vertex 73.3333 2 50
    endloop
  endfacet
  facet normal -1 0 -6.12303e-017
    outer loop
      vertex 73.3333 8 48
      vertex 73.3333 10 52
      vertex 73.3333 10 48
    endloop
  endfacet
  facet normal -1 0 -6.12303e-017
    outer loop
      vertex 73.3333 0 52
      vertex 73.3333 10 52
      vertex 73.3333 8 50
    endloop
  endfacet
  facet normal -1 0 -6.12303e-017
    outer loop
      vertex 73.3333 0 52
      vertex 73.3333 8 50
      vertex 73.3333 2 50
    endloop
  endfacet
  facet normal -1 0 -6.12303e-017
    outer loop
      vertex 73.3333 0 52
      vertex 73.3333 2 50
      vertex 73.3333 0 35.3333
    endloop
  endfacet
  facet normal -1 0 -6.12303e-017
    outer loop
      vertex 73.3333 8 50
      vertex 73.3333 10 52
      vertex 73.3333 8 48
    endloop
  endfacet
  facet normal -6.12303e-017 0 1
    outer loop
      vertex 73.3333 10 52
      vertex 73.3333 0 52
      vertex 75.3333 0 52
    endloop
  endfacet
  facet normal -6.12303e-017 0 1
    outer loop
      vertex 75.3333 10 52
      vertex 73.3333 10 52
      vertex 75.3333 0 52
    endloop
  endfacet
  facet normal 1 0 6.12303e-017
    outer loop
      vertex 75.3333 2 50
      vertex 75.3333 0 52
      vertex 75.3333 0 35.3333
    endloop
  endfacet
  facet normal 1 0 6.12303e-017
    outer loop
      vertex 75.3333 10 52
      vertex 75.3333 0 52
      vertex 75.3333 2 50
    endloop
  endfacet
  facet normal 1 0 6.12303e-017
    outer loop
      vertex 75.3333 8 48
      vertex 75.3333 10 48
      vertex 75.3333 10 52
    endloop
  endfacet
  facet normal 1 0 6.12303e-017
    outer loop
      vertex 75.3333 10 52
      vertex 75.3333 2 50
      vertex 75.3333 8 50
    endloop
  endfacet
  facet normal 1 0 6.12303e-017
    outer loop
      vertex 75.3333 8 50
      vertex 75.3333 8 48
      vertex 75.3333 10 52
    endloop
  endfacet
  facet normal 1 0 6.12303e-017
    outer loop
      vertex 75.3333 2 35.3333
      vertex 75.3333 2 50
      vertex 75.3333 0 35.3333
    endloop
  endfacet
  facet normal 0 0 1
    outer loop
      vertex 75.3333 2 35.3333
      vertex 75.3333 0 35.3333
      vertex 114 0 35.3333
    endloop
  endfacet
  facet normal 0 0 1
    outer loop
      vertex 112 8 35.3333
      vertex 112 2 35.3333
      vertex 114 0 35.3333
    endloop
  endfacet
  facet normal 0 0 1
    outer loop
      vertex 112 2 35.3333
      vertex 75.3333 2 35.3333
      vertex 114 0 35.3333
    endloop
  endfacet
  facet normal 0 0 1
    outer loop
      vertex 114 10 35.3333
      vertex 112 8 35.3333
      vertex 114 0 35.3333
    endloop
  endfacet
  facet normal 0 0 1
    outer loop
      vertex 114 10 35.3333
      vertex 110 8 35.3333
      vertex 112 8 35.3333
    endloop
  endfacet
  facet normal 0 0 1
    outer loop
      vertex 110 10 35.3333
      vertex 110 8 35.3333
      vertex 114 10 35.3333
    endloop
  endfacet
  facet normal 1 0 0
    outer loop
      vertex 114 0 35.3333
      vertex 114 0 33.3333
      vertex 114 10 33.3333
    endloop
  endfacet
  facet normal 1 0 0
    outer loop
      vertex 114 10 35.3333
      vertex 114 0 35.3333
      vertex 114 10 33.3333
    endloop
  endfacet
  facet normal 0 0 -1
    outer loop
      vertex 75.3333 0 33.3333
      vertex 75.3333 2 33.3333
      vertex 114 0 33.3333
    endloop
  endfacet
  facet normal 0 0 -1
    outer loop
      vertex 114 0 33.3333
      vertex 75.3333 2 33.3333
      vertex 112 2 33.3333
    endloop
  endfacet
  facet normal 0 0 -1
    outer loop
      vertex 114 0 33.3333
      vertex 112 2 33.3333
      vertex 112 8 33.3333
    endloop
  endfacet
  facet normal 0 0 -1
    outer loop
      vertex 112 8 33.3333
      vertex 110 8 33.3333
      vertex 110 10 33.3333
    endloop
  endfacet
  facet normal 0 0 -1
    outer loop
      vertex 112 8 33.3333
      vertex 110 10 33.3333
      vertex 114 10 33.3333
    endloop
  endfacet
  facet normal 0 0 -1
    outer loop
      vertex 112 8 33.3333
      vertex 114 10 33.3333
      vertex 114 0 33.3333
    endloop
  endfacet
  facet normal 1 0 6.12303e-017
    outer loop
      vertex 75.3333 2 33.3333
      vertex 75.3333 0 33.3333
      vertex 75.3333 0 18.6667
    endloop
  endfacet
  facet normal 1 0 6.12303e-017
    outer loop
      vertex 75.3333 2 18.6667
      vertex 75.3333 2 33.3333
      vertex 75.3333 0 18.6667
    endloop
  endfacet
  facet normal 0 0 1
    outer loop
      vertex 75.3333 2 18.6667
      vertex 75.3333 0 18.6667
      vertex 114 0 18.6667
    endloop
  endfacet
  facet normal 0 0 1
    outer loop
      vertex 112 8 18.6667
      vertex 112 2 18.6667
      vertex 114 0 18.6667
    endloop
  endfacet
  facet normal 0 0 1
    outer loop
      vertex 112 2 18.6667
      vertex 75.3333 2 18.6667
      vertex 114 0 18.6667
    endloop
  endfacet
  facet normal 0 0 1
    outer loop
      vertex 114 10 18.6667
      vertex 112 8 18.6667
      vertex 114 0 18.6667
    endloop
  endfacet
  facet normal 0 0 1
    outer loop
      vertex 114 10 18.6667
      vertex 110 8 18.6667
      vertex 112 8 18.6667
    endloop
  endfacet
  facet normal 0 0 1
    outer loop
      vertex 110 10 18.6667
      vertex 110 8 18.6667
      vertex 114 10 18.6667
    endloop
  endfacet
  facet normal 1 0 0
    outer loop
      vertex 114 0 18.6667
      vertex 114 0 16.6667
      vertex 114 10 16.6667
    endloop
  endfacet
  facet normal 1 0 0
    outer loop
      vertex 114 10 18.6667
      vertex 114 0 18.6667
      vertex 114 10 16.6667
    endloop
  endfacet
  facet normal 0 0 -1
    outer loop
      vertex 75.3333 0 16.6667
      vertex 75.3333 2 16.6667
      vertex 114 0 16.6667
    endloop
  endfacet
  facet normal 0 0 -1
    outer loop
      vertex 114 0 16.6667
      vertex 75.3333 2 16.6667
      vertex 112 2 16.6667
    endloop
  endfacet
  facet normal 0 0 -1
    outer loop
      vertex 114 0 16.6667
      vertex 112 2 16.6667
      vertex 112 8 16.6667
    endloop
  endfacet
  facet normal 0 0 -1
    outer loop
      vertex 112 8 16.6667
      vertex 110 8 16.6667
      vertex 110 10 16.6667
    endloop
  endfacet
  facet normal 0 0 -1
    outer loop
      vertex 112 8 16.6667
      vertex 110 10 16.6667
      vertex 114 10 16.6667
    endloop
  endfacet
  facet normal 0 0 -1
    outer loop
      vertex 112 8 16.6667
      vertex 114 10 16.6667
      vertex 114 0 16.6667
    endloop
  endfacet
  facet normal 1 0 6.12303e-017
    outer loop
      vertex 75.3333 2 16.6667
      vertex 75.3333 0 16.6667
      vertex 75.3333 0 -2
    endloop
  endfacet
  facet normal 1 0 6.12303e-017
    outer loop
      vertex 75.3333 8 1.22461e-016
      vertex 75.3333 2 1.22461e-016
      vertex 75.3333 0 -2
    endloop
  endfacet
  facet normal 1 0 6.12303e-017
    outer loop
      vertex 75.3333 2 1.22461e-016
      vertex 75.3333 2 16.6667
      vertex 75.3333 0 -2
    endloop
  endfacet
  facet normal 1 0 6.12303e-017
    outer loop
      vertex 75.3333 10 -2
      vertex 75.3333 8 1.22461e-016
      vertex 75.3333 0 -2
    endloop
  endfacet
  facet normal 1 0 6.12303e-017
    outer loop
      vertex 75.3333 10 -2
      vertex 75.3333 8 2
      vertex 75.3333 8 1.22461e-016
    endloop
  endfacet
  facet normal 1 0 6.12303e-017
    outer loop
      vertex 75.3333 10 2
      vertex 75.3333 8 2
      vertex 75.3333 10 -2
    endloop
  endfacet
  facet normal 6.12303e-017 0 -1
    outer loop
      vertex 73.3333 0 -2
      vertex 73.3333 10 -2
      vertex 75.3333 0 -2
    endloop
  endfacet
  facet normal 6.12303e-017 0 -1
    outer loop
      vertex 75.3333 0 -2
      vertex 73.3333 10 -2
      vertex 75.3333 10 -2
    endloop
  endfacet
  facet normal -1 0 -6.12303e-017
    outer loop
      vertex 73.3333 0 16.6667
      vertex 73.3333 2 16.6667
      vertex 73.3333 0 -2
    endloop
  endfacet
  facet normal -1 0 -6.12303e-017
    outer loop
      vertex 73.3333 0 -2
      vertex 73.3333 2 16.6667
      vertex 73.3333 2 0
    endloop
  endfacet
  facet normal -1 0 -6.12303e-017
    outer loop
      vertex 73.3333 0 -2
      vertex 73.3333 2 0
      vertex 73.3333 8 0
    endloop
  endfacet
  facet normal -1 0 -6.12303e-017
    outer loop
      vertex 73.3333 8 0
      vertex 73.3333 8 2
      vertex 73.3333 10 2
    endloop
  endfacet
  facet normal -1 0 -6.12303e-017
    outer loop
      vertex 73.3333 8 0
      vertex 73.3333 10 2
      vertex 73.3333 10 -2
    endloop
  endfacet
  facet normal -1 0 -6.12303e-017
    outer loop
      vertex 73.3333 8 0
      vertex 73.3333 10 -2
      vertex 73.3333 0 -2
    endloop
  endfacet
  facet normal 0 0 -1
    outer loop
      vertex 38.6667 0 16.6667
      vertex 38.6667 2 16.6667
      vertex 73.3333 0 16.6667
    endloop
  endfacet
  facet normal 0 0 -1
    outer loop
      vertex 73.3333 0 16.6667
      vertex 38.6667 2 16.6667
      vertex 73.3333 2 16.6667
    endloop
  endfacet
  facet normal 1 0 6.12303e-017
    outer loop
      vertex 38.6667 2 16.6667
      vertex 38.6667 0 16.6667
      vertex 38.6667 0 -2
    endloop
  endfacet
  facet normal 1 0 6.12303e-017
    outer loop
      vertex 38.6667 8 1.22461e-016
      vertex 38.6667 2 1.22461e-016
      vertex 38.6667 0 -2
    endloop
  endfacet
  facet normal 1 0 6.12303e-017
    outer loop
      vertex 38.6667 2 1.22461e-016
      vertex 38.6667 2 16.6667
      vertex 38.6667 0 -2
    endloop
  endfacet
  facet normal 1 0 6.12303e-017
    outer loop
      vertex 38.6667 10 -2
      vertex 38.6667 8 1.22461e-016
      vertex 38.6667 0 -2
    endloop
  endfacet
  facet normal 1 0 6.12303e-017
    outer loop
      vertex 38.6667 10 -2
      vertex 38.6667 8 2
      vertex 38.6667 8 1.22461e-016
    endloop
  endfacet
  facet normal 1 0 6.12303e-017
    outer loop
      vertex 38.6667 10 2
      vertex 38.6667 8 2
      vertex 38.6667 10 -2
    endloop
  endfacet
  facet normal 6.12303e-017 0 -1
    outer loop
      vertex 36.6667 0 -2
      vertex 36.6667 10 -2
      vertex 38.6667 0 -2
    endloop
  endfacet
  facet normal 6.12303e-017 0 -1
    outer loop
      vertex 38.6667 0 -2
      vertex 36.6667 10 -2
      vertex 38.6667 10 -2
    endloop
  endfacet
  facet normal -1 0 -6.12303e-017
    outer loop
      vertex 36.6667 0 16.6667
      vertex 36.6667 2 16.6667
      vertex 36.6667 0 -2
    endloop
  endfacet
  facet normal -1 0 -6.12303e-017
    outer loop
      vertex 36.6667 0 -2
      vertex 36.6667 2 16.6667
      vertex 36.6667 2 0
    endloop
  endfacet
  facet normal -1 0 -6.12303e-017
    outer loop
      vertex 36.6667 0 -2
      vertex 36.6667 2 0
      vertex 36.6667 8 0
    endloop
  endfacet
  facet normal -1 0 -6.12303e-017
    outer loop
      vertex 36.6667 8 0
      vertex 36.6667 8 2
      vertex 36.6667 10 2
    endloop
  endfacet
  facet normal -1 0 -6.12303e-017
    outer loop
      vertex 36.6667 8 0
      vertex 36.6667 10 2
      vertex 36.6667 10 -2
    endloop
  endfacet
  facet normal -1 0 -6.12303e-017
    outer loop
      vertex 36.6667 8 0
      vertex 36.6667 10 -2
      vertex 36.6667 0 -2
    endloop
  endfacet
  facet normal -1 0 0
    outer loop
      vertex 48.723 -1.9 25.0326
      vertex 48.723 -1.9 26.9674
      vertex 48.723 0 25.0326
    endloop
  endfacet
  facet normal -1 0 0
    outer loop
      vertex 48.723 0 25.0326
      vertex 48.723 -1.9 26.9674
      vertex 48.723 0 26.9674
    endloop
  endfacet
  facet normal -0.973045 -4.2362e-017 -0.230616
    outer loop
      vertex 48.723 -1.9 25.0326
      vertex 48.723 0 25.0326
      vertex 49.1692 -1.9 23.1498
    endloop
  endfacet
  facet normal -0.973045 -4.2362e-017 -0.230616
    outer loop
      vertex 49.1692 -1.9 23.1498
      vertex 48.723 0 25.0326
      vertex 49.1692 0 23.1498
    endloop
  endfacet
  facet normal -0.893632 -8.24404e-017 -0.4488
    outer loop
      vertex 49.1692 -1.9 23.1498
      vertex 49.1692 0 23.1498
      vertex 50.0376 -1.9 21.4208
    endloop
  endfacet
  facet normal -0.893632 -8.24404e-017 -0.4488
    outer loop
      vertex 50.0376 -1.9 21.4208
      vertex 49.1692 0 23.1498
      vertex 50.0376 0 21.4208
    endloop
  endfacet
  facet normal -0.766045 -1.18074e-016 -0.642787
    outer loop
      vertex 50.0376 -1.9 21.4208
      vertex 50.0376 0 21.4208
      vertex 51.2813 -1.9 19.9386
    endloop
  endfacet
  facet normal -0.766045 -1.18074e-016 -0.642787
    outer loop
      vertex 51.2813 -1.9 19.9386
      vertex 50.0376 0 21.4208
      vertex 51.2813 0 19.9386
    endloop
  endfacet
  facet normal -0.597159 -1.47343e-016 -0.802123
    outer loop
      vertex 51.2813 -1.9 19.9386
      vertex 51.2813 0 19.9386
      vertex 52.8333 -1.9 18.7831
    endloop
  endfacet
  facet normal -0.597159 -1.47343e-016 -0.802123
    outer loop
      vertex 52.8333 -1.9 18.7831
      vertex 51.2813 0 19.9386
      vertex 52.8333 0 18.7831
    endloop
  endfacet
  facet normal -0.39608 -1.68668e-016 -0.918216
    outer loop
      vertex 52.8333 -1.9 18.7831
      vertex 52.8333 0 18.7831
      vertex 54.61 -1.9 18.0168
    endloop
  endfacet
  facet normal -0.39608 -1.68668e-016 -0.918216
    outer loop
      vertex 54.61 -1.9 18.0168
      vertex 52.8333 0 18.7831
      vertex 54.61 0 18.0168
    endloop
  endfacet
  facet normal -0.173648 -1.809e-016 -0.984808
    outer loop
      vertex 54.61 -1.9 18.0168
      vertex 54.61 0 18.0168
      vertex 56.5155 -1.9 17.6808
    endloop
  endfacet
  facet normal -0.173648 -1.809e-016 -0.984808
    outer loop
      vertex 56.5155 -1.9 17.6808
      vertex 54.61 0 18.0168
      vertex 56.5155 0 17.6808
    endloop
  endfacet
  facet normal 0.0581452 -1.8338e-016 -0.998308
    outer loop
      vertex 56.5155 -1.9 17.6808
      vertex 56.5155 0 17.6808
      vertex 58.4471 -1.9 17.7933
    endloop
  endfacet
  facet normal 0.0581452 -1.8338e-016 -0.998308
    outer loop
      vertex 58.4471 -1.9 17.7933
      vertex 56.5155 0 17.6808
      vertex 58.4471 0 17.7933
    endloop
  endfacet
  facet normal 0.286803 -1.75974e-016 -0.95799
    outer loop
      vertex 58.4471 -1.9 17.7933
      vertex 58.4471 0 17.7933
      vertex 60.3007 -1.9 18.3482
    endloop
  endfacet
  facet normal 0.286803 -1.75974e-016 -0.95799
    outer loop
      vertex 60.3007 -1.9 18.3482
      vertex 58.4471 0 17.7933
      vertex 60.3007 0 18.3482
    endloop
  endfacet
  facet normal 0.5 -1.59081e-016 -0.866025
    outer loop
      vertex 60.3007 -1.9 18.3482
      vertex 60.3007 0 18.3482
      vertex 61.9763 -1.9 19.3156
    endloop
  endfacet
  facet normal 0.5 -1.59081e-016 -0.866025
    outer loop
      vertex 61.9763 -1.9 19.3156
      vertex 60.3007 0 18.3482
      vertex 61.9763 0 19.3156
    endloop
  endfacet
  facet normal 0.686242 -1.33612e-016 -0.727373
    outer loop
      vertex 61.9763 -1.9 19.3156
      vertex 61.9763 0 19.3156
      vertex 63.3837 -1.9 20.6434
    endloop
  endfacet
  facet normal 0.686242 -1.33612e-016 -0.727373
    outer loop
      vertex 63.3837 -1.9 20.6434
      vertex 61.9763 0 19.3156
      vertex 63.3837 0 20.6434
    endloop
  endfacet
  facet normal 0.835488 -1.0094e-016 -0.549509
    outer loop
      vertex 64.4469 -1.9 22.26
      vertex 63.3837 -1.9 20.6434
      vertex 63.3837 0 20.6434
    endloop
  endfacet
  facet normal 0.835488 -1.0094e-016 -0.549509
    outer loop
      vertex 64.4469 0 22.26
      vertex 64.4469 -1.9 22.26
      vertex 63.3837 0 20.6434
    endloop
  endfacet
  facet normal 0.939693 -6.2826e-017 -0.34202
    outer loop
      vertex 65.1087 -1.9 24.0782
      vertex 64.4469 -1.9 22.26
      vertex 64.4469 0 22.26
    endloop
  endfacet
  facet normal 0.939693 -6.2826e-017 -0.34202
    outer loop
      vertex 65.1087 0 24.0782
      vertex 65.1087 -1.9 24.0782
      vertex 64.4469 0 22.26
    endloop
  endfacet
  facet normal 0.993238 -2.13252e-017 -0.116093
    outer loop
      vertex 65.3333 -1.9 26
      vertex 65.1087 -1.9 24.0782
      vertex 65.1087 0 24.0782
    endloop
  endfacet
  facet normal 0.993238 -2.13252e-017 -0.116093
    outer loop
      vertex 65.3333 0 26
      vertex 65.3333 -1.9 26
      vertex 65.1087 0 24.0782
    endloop
  endfacet
  facet normal 0.993238 2.13252e-017 0.116093
    outer loop
      vertex 65.1087 0 27.9218
      vertex 65.1087 -1.9 27.9218
      vertex 65.3333 -1.9 26
    endloop
  endfacet
  facet normal 0.993238 2.13252e-017 0.116093
    outer loop
      vertex 65.3333 0 26
      vertex 65.1087 0 27.9218
      vertex 65.3333 -1.9 26
    endloop
  endfacet
  facet normal 0.939693 6.2826e-017 0.34202
    outer loop
      vertex 64.4469 0 29.74
      vertex 64.4469 -1.9 29.74
      vertex 65.1087 -1.9 27.9218
    endloop
  endfacet
  facet normal 0.939693 6.2826e-017 0.34202
    outer loop
      vertex 65.1087 0 27.9218
      vertex 64.4469 0 29.74
      vertex 65.1087 -1.9 27.9218
    endloop
  endfacet
  facet normal 0.835488 1.0094e-016 0.549509
    outer loop
      vertex 63.3837 0 31.3566
      vertex 63.3837 -1.9 31.3566
      vertex 64.4469 -1.9 29.74
    endloop
  endfacet
  facet normal 0.835488 1.0094e-016 0.549509
    outer loop
      vertex 64.4469 0 29.74
      vertex 63.3837 0 31.3566
      vertex 64.4469 -1.9 29.74
    endloop
  endfacet
  facet normal 0.686242 1.33612e-016 0.727373
    outer loop
      vertex 61.9763 0 32.6844
      vertex 61.9763 -1.9 32.6844
      vertex 63.3837 -1.9 31.3566
    endloop
  endfacet
  facet normal 0.686242 1.33612e-016 0.727373
    outer loop
      vertex 63.3837 0 31.3566
      vertex 61.9763 0 32.6844
      vertex 63.3837 -1.9 31.3566
    endloop
  endfacet
  facet normal 0.5 1.59081e-016 0.866025
    outer loop
      vertex 60.3007 0 33.6518
      vertex 60.3007 -1.9 33.6518
      vertex 61.9763 -1.9 32.6844
    endloop
  endfacet
  facet normal 0.5 1.59081e-016 0.866025
    outer loop
      vertex 61.9763 0 32.6844
      vertex 60.3007 0 33.6518
      vertex 61.9763 -1.9 32.6844
    endloop
  endfacet
  facet normal 0.286803 1.75974e-016 0.95799
    outer loop
      vertex 58.4471 0 34.2067
      vertex 58.4471 -1.9 34.2067
      vertex 60.3007 -1.9 33.6518
    endloop
  endfacet
  facet normal 0.286803 1.75974e-016 0.95799
    outer loop
      vertex 60.3007 0 33.6518
      vertex 58.4471 0 34.2067
      vertex 60.3007 -1.9 33.6518
    endloop
  endfacet
  facet normal 0.0581452 1.8338e-016 0.998308
    outer loop
      vertex 56.5155 0 34.3192
      vertex 56.5155 -1.9 34.3192
      vertex 58.4471 -1.9 34.2067
    endloop
  endfacet
  facet normal 0.0581452 1.8338e-016 0.998308
    outer loop
      vertex 58.4471 0 34.2067
      vertex 56.5155 0 34.3192
      vertex 58.4471 -1.9 34.2067
    endloop
  endfacet
  facet normal -0.173648 1.809e-016 0.984808
    outer loop
      vertex 54.61 0 33.9832
      vertex 54.61 -1.9 33.9832
      vertex 56.5155 -1.9 34.3192
    endloop
  endfacet
  facet normal -0.173648 1.809e-016 0.984808
    outer loop
      vertex 56.5155 0 34.3192
      vertex 54.61 0 33.9832
      vertex 56.5155 -1.9 34.3192
    endloop
  endfacet
  facet normal -0.39608 1.68668e-016 0.918216
    outer loop
      vertex 52.8333 0 33.2169
      vertex 52.8333 -1.9 33.2169
      vertex 54.61 -1.9 33.9832
    endloop
  endfacet
  facet normal -0.39608 1.68668e-016 0.918216
    outer loop
      vertex 54.61 0 33.9832
      vertex 52.8333 0 33.2169
      vertex 54.61 -1.9 33.9832
    endloop
  endfacet
  facet normal -0.597159 1.47343e-016 0.802123
    outer loop
      vertex 51.2813 0 32.0614
      vertex 51.2813 -1.9 32.0614
      vertex 52.8333 -1.9 33.2169
    endloop
  endfacet
  facet normal -0.597159 1.47343e-016 0.802123
    outer loop
      vertex 52.8333 0 33.2169
      vertex 51.2813 0 32.0614
      vertex 52.8333 -1.9 33.2169
    endloop
  endfacet
  facet normal -0.766045 1.18074e-016 0.642787
    outer loop
      vertex 50.0376 -1.9 30.5792
      vertex 51.2813 -1.9 32.0614
      vertex 50.0376 0 30.5792
    endloop
  endfacet
  facet normal -0.766045 1.18074e-016 0.642787
    outer loop
      vertex 50.0376 0 30.5792
      vertex 51.2813 -1.9 32.0614
      vertex 51.2813 0 32.0614
    endloop
  endfacet
  facet normal -0.893632 8.24404e-017 0.4488
    outer loop
      vertex 49.1692 -1.9 28.8502
      vertex 50.0376 -1.9 30.5792
      vertex 49.1692 0 28.8502
    endloop
  endfacet
  facet normal -0.893632 8.24404e-017 0.4488
    outer loop
      vertex 49.1692 0 28.8502
      vertex 50.0376 -1.9 30.5792
      vertex 50.0376 0 30.5792
    endloop
  endfacet
  facet normal -0.973045 4.2362e-017 0.230616
    outer loop
      vertex 48.723 -1.9 26.9674
      vertex 49.1692 -1.9 28.8502
      vertex 48.723 0 26.9674
    endloop
  endfacet
  facet normal -0.973045 4.2362e-017 0.230616
    outer loop
      vertex 48.723 0 26.9674
      vertex 49.1692 -1.9 28.8502
      vertex 49.1692 0 28.8502
    endloop
  endfacet
  facet normal 0 1 0
    outer loop
      vertex 2 2 16.6667
      vertex 2 2 18.6667
      vertex 36.6667 2 16.6667
    endloop
  endfacet
  facet normal 0 1 0
    outer loop
      vertex 36.6667 2 16.6667
      vertex 2 2 18.6667
      vertex 36.6667 2 18.6667
    endloop
  endfacet
  facet normal 0 1 0
    outer loop
      vertex 36.6667 2 16.6667
      vertex 36.6667 2 18.6667
      vertex 36.6667 2 33.3333
    endloop
  endfacet
  facet normal 0 1 0
    outer loop
      vertex 36.6667 2 33.3333
      vertex 2 2 33.3333
      vertex 2 2 35.3333
    endloop
  endfacet
  facet normal 0 1 0
    outer loop
      vertex 36.6667 2 33.3333
      vertex 2 2 35.3333
      vertex 36.6667 2 35.3333
    endloop
  endfacet
  facet normal 0 1 0
    outer loop
      vertex 36.6667 2 33.3333
      vertex 36.6667 2 35.3333
      vertex 36.6667 2 16.6667
    endloop
  endfacet
  facet normal 0 1 0
    outer loop
      vertex 36.6667 2 35.3333
      vertex 36.6667 2 50
      vertex 38.6667 2 50
    endloop
  endfacet
  facet normal 0 1 0
    outer loop
      vertex 36.6667 2 35.3333
      vertex 38.6667 2 50
      vertex 36.6667 2 16.6667
    endloop
  endfacet
  facet normal 0 1 0
    outer loop
      vertex 36.6667 2 16.6667
      vertex 38.6667 2 50
      vertex 38.6667 2 35.3333
    endloop
  endfacet
  facet normal 0 1 0
    outer loop
      vertex 58.6 2 28.7714
      vertex 38.6667 2 35.3333
      vertex 73.3333 2 35.3333
    endloop
  endfacet
  facet normal 0 1 0
    outer loop
      vertex 73.3333 2 35.3333
      vertex 73.3333 2 50
      vertex 75.3333 2 50
    endloop
  endfacet
  facet normal 0 1 0
    outer loop
      vertex 73.3333 2 35.3333
      vertex 75.3333 2 50
      vertex 75.3333 2 35.3333
    endloop
  endfacet
  facet normal 0 1 0
    outer loop
      vertex 75.3333 2 18.6667
      vertex 58.6 2 23.2286
      vertex 75.3333 2 33.3333
    endloop
  endfacet
  facet normal 0 1 0
    outer loop
      vertex 75.3333 2 35.3333
      vertex 112 2 35.3333
      vertex 75.3333 2 33.3333
    endloop
  endfacet
  facet normal 0 1 0
    outer loop
      vertex 58.6 2 28.7714
      vertex 75.3333 2 33.3333
      vertex 60.2001 2 26
    endloop
  endfacet
  facet normal 0 1 0
    outer loop
      vertex 73.3333 2 16.6667
      vertex 75.3333 2 1.22461e-016
      vertex 73.3333 2 0
    endloop
  endfacet
  facet normal 0 1 0
    outer loop
      vertex 36.6667 2 16.6667
      vertex 75.3333 2 18.6667
      vertex 112 2 18.6667
    endloop
  endfacet
  facet normal 0 1 0
    outer loop
      vertex 75.3333 2 16.6667
      vertex 112 2 18.6667
      vertex 112 2 16.6667
    endloop
  endfacet
  facet normal 0 1 0
    outer loop
      vertex 36.6667 2 16.6667
      vertex 112 2 18.6667
      vertex 38.6667 2 16.6667
    endloop
  endfacet
  facet normal 0 1 0
    outer loop
      vertex 75.3333 2 33.3333
      vertex 112 2 35.3333
      vertex 112 2 33.3333
    endloop
  endfacet
  facet normal 0 1 0
    outer loop
      vertex 75.3333 2 16.6667
      vertex 75.3333 2 1.22461e-016
      vertex 73.3333 2 16.6667
    endloop
  endfacet
  facet normal 0 1 0
    outer loop
      vertex 75.3333 2 16.6667
      vertex 73.3333 2 16.6667
      vertex 112 2 18.6667
    endloop
  endfacet
  facet normal 0 1 0
    outer loop
      vertex 38.6667 2 1.22461e-016
      vertex 36.6667 2 16.6667
      vertex 38.6667 2 16.6667
    endloop
  endfacet
  facet normal 0 1 0
    outer loop
      vertex 73.3333 2 16.6667
      vertex 38.6667 2 16.6667
      vertex 112 2 18.6667
    endloop
  endfacet
  facet normal 0 1 0
    outer loop
      vertex 36.6667 2 16.6667
      vertex 38.6667 2 35.3333
      vertex 53.7999 2 26
    endloop
  endfacet
  facet normal 0 1 0
    outer loop
      vertex 75.3333 2 18.6667
      vertex 36.6667 2 16.6667
      vertex 58.6 2 23.2286
    endloop
  endfacet
  facet normal 0 1 0
    outer loop
      vertex 60.2001 2 26
      vertex 75.3333 2 33.3333
      vertex 58.6 2 23.2286
    endloop
  endfacet
  facet normal 0 1 0
    outer loop
      vertex 58.6 2 28.7714
      vertex 75.3333 2 35.3333
      vertex 75.3333 2 33.3333
    endloop
  endfacet
  facet normal 0 1 0
    outer loop
      vertex 55.3999 2 23.2286
      vertex 58.6 2 23.2286
      vertex 36.6667 2 16.6667
    endloop
  endfacet
  facet normal 0 1 0
    outer loop
      vertex 58.6 2 28.7714
      vertex 73.3333 2 35.3333
      vertex 75.3333 2 35.3333
    endloop
  endfacet
  facet normal 0 1 0
    outer loop
      vertex 55.3999 2 28.7714
      vertex 38.6667 2 35.3333
      vertex 58.6 2 28.7714
    endloop
  endfacet
  facet normal 0 1 0
    outer loop
      vertex 53.7999 2 26
      vertex 38.6667 2 35.3333
      vertex 55.3999 2 28.7714
    endloop
  endfacet
  facet normal 0 1 0
    outer loop
      vertex 55.3999 2 23.2286
      vertex 36.6667 2 16.6667
      vertex 53.7999 2 26
    endloop
  endfacet
  facet normal 0 1 0
    outer loop
      vertex 36.6667 2 16.6667
      vertex 38.6667 2 1.22461e-016
      vertex 36.6667 2 0
    endloop
  endfacet
  facet normal 1 0 0
    outer loop
      vertex 2 2 18.6667
      vertex 2 2 16.6667
      vertex 2 8 16.6667
    endloop
  endfacet
  facet normal 1 0 0
    outer loop
      vertex 2 8 18.6667
      vertex 2 2 18.6667
      vertex 2 8 16.6667
    endloop
  endfacet
  facet normal 0 -1 0
    outer loop
      vertex 2 8 18.6667
      vertex 2 8 16.6667
      vertex 4 8 16.6667
    endloop
  endfacet
  facet normal 0 -1 0
    outer loop
      vertex 4 8 18.6667
      vertex 2 8 18.6667
      vertex 4 8 16.6667
    endloop
  endfacet
  facet normal 1 0 0
    outer loop
      vertex 4 8 18.6667
      vertex 4 8 16.6667
      vertex 4 10 16.6667
    endloop
  endfacet
  facet normal 1 0 0
    outer loop
      vertex 4 10 18.6667
      vertex 4 8 18.6667
      vertex 4 10 16.6667
    endloop
  endfacet
  facet normal 0 1 0
    outer loop
      vertex 0 10 16.6667
      vertex 0 10 18.6667
      vertex 4 10 16.6667
    endloop
  endfacet
  facet normal 0 1 0
    outer loop
      vertex 4 10 16.6667
      vertex 0 10 18.6667
      vertex 4 10 18.6667
    endloop
  endfacet
  facet normal 1 0 0
    outer loop
      vertex 2 2 35.3333
      vertex 2 2 33.3333
      vertex 2 8 33.3333
    endloop
  endfacet
  facet normal 1 0 0
    outer loop
      vertex 2 8 35.3333
      vertex 2 2 35.3333
      vertex 2 8 33.3333
    endloop
  endfacet
  facet normal 0 -1 0
    outer loop
      vertex 2 8 35.3333
      vertex 2 8 33.3333
      vertex 4 8 33.3333
    endloop
  endfacet
  facet normal 0 -1 0
    outer loop
      vertex 4 8 35.3333
      vertex 2 8 35.3333
      vertex 4 8 33.3333
    endloop
  endfacet
  facet normal 1 0 0
    outer loop
      vertex 4 8 35.3333
      vertex 4 8 33.3333
      vertex 4 10 33.3333
    endloop
  endfacet
  facet normal 1 0 0
    outer loop
      vertex 4 10 35.3333
      vertex 4 8 35.3333
      vertex 4 10 33.3333
    endloop
  endfacet
  facet normal 0 1 0
    outer loop
      vertex 0 10 33.3333
      vertex 0 10 35.3333
      vertex 4 10 33.3333
    endloop
  endfacet
  facet normal 0 1 0
    outer loop
      vertex 4 10 33.3333
      vertex 0 10 35.3333
      vertex 4 10 35.3333
    endloop
  endfacet
  facet normal 6.12303e-017 0 -1
    outer loop
      vertex 36.6667 2 50
      vertex 36.6667 8 50
      vertex 38.6667 2 50
    endloop
  endfacet
  facet normal 6.12303e-017 0 -1
    outer loop
      vertex 38.6667 2 50
      vertex 36.6667 8 50
      vertex 38.6667 8 50
    endloop
  endfacet
  facet normal 0 -1 0
    outer loop
      vertex 38.6667 8 50
      vertex 36.6667 8 50
      vertex 36.6667 8 48
    endloop
  endfacet
  facet normal 0 -1 0
    outer loop
      vertex 38.6667 8 48
      vertex 38.6667 8 50
      vertex 36.6667 8 48
    endloop
  endfacet
  facet normal 6.12303e-017 0 -1
    outer loop
      vertex 36.6667 8 48
      vertex 36.6667 10 48
      vertex 38.6667 8 48
    endloop
  endfacet
  facet normal 6.12303e-017 0 -1
    outer loop
      vertex 38.6667 8 48
      vertex 36.6667 10 48
      vertex 38.6667 10 48
    endloop
  endfacet
  facet normal 0 1 0
    outer loop
      vertex 36.6667 10 52
      vertex 38.6667 10 52
      vertex 36.6667 10 48
    endloop
  endfacet
  facet normal 0 1 0
    outer loop
      vertex 36.6667 10 48
      vertex 38.6667 10 52
      vertex 38.6667 10 48
    endloop
  endfacet
  facet normal 6.12303e-017 0 -1
    outer loop
      vertex 73.3333 2 50
      vertex 73.3333 8 50
      vertex 75.3333 2 50
    endloop
  endfacet
  facet normal 6.12303e-017 0 -1
    outer loop
      vertex 75.3333 2 50
      vertex 73.3333 8 50
      vertex 75.3333 8 50
    endloop
  endfacet
  facet normal 0 -1 0
    outer loop
      vertex 75.3333 8 50
      vertex 73.3333 8 50
      vertex 73.3333 8 48
    endloop
  endfacet
  facet normal 0 -1 0
    outer loop
      vertex 75.3333 8 48
      vertex 75.3333 8 50
      vertex 73.3333 8 48
    endloop
  endfacet
  facet normal 6.12303e-017 0 -1
    outer loop
      vertex 73.3333 8 48
      vertex 73.3333 10 48
      vertex 75.3333 8 48
    endloop
  endfacet
  facet normal 6.12303e-017 0 -1
    outer loop
      vertex 75.3333 8 48
      vertex 73.3333 10 48
      vertex 75.3333 10 48
    endloop
  endfacet
  facet normal 0 1 0
    outer loop
      vertex 73.3333 10 52
      vertex 75.3333 10 52
      vertex 73.3333 10 48
    endloop
  endfacet
  facet normal 0 1 0
    outer loop
      vertex 73.3333 10 48
      vertex 75.3333 10 52
      vertex 75.3333 10 48
    endloop
  endfacet
  facet normal -1 0 0
    outer loop
      vertex 112 2 33.3333
      vertex 112 2 35.3333
      vertex 112 8 33.3333
    endloop
  endfacet
  facet normal -1 0 0
    outer loop
      vertex 112 8 33.3333
      vertex 112 2 35.3333
      vertex 112 8 35.3333
    endloop
  endfacet
  facet normal 0 -1 0
    outer loop
      vertex 110 8 35.3333
      vertex 110 8 33.3333
      vertex 112 8 33.3333
    endloop
  endfacet
  facet normal 0 -1 0
    outer loop
      vertex 112 8 35.3333
      vertex 110 8 35.3333
      vertex 112 8 33.3333
    endloop
  endfacet
  facet normal -1 0 0
    outer loop
      vertex 110 8 33.3333
      vertex 110 8 35.3333
      vertex 110 10 33.3333
    endloop
  endfacet
  facet normal -1 0 0
    outer loop
      vertex 110 10 33.3333
      vertex 110 8 35.3333
      vertex 110 10 35.3333
    endloop
  endfacet
  facet normal 0 1 0
    outer loop
      vertex 110 10 33.3333
      vertex 110 10 35.3333
      vertex 114 10 33.3333
    endloop
  endfacet
  facet normal 0 1 0
    outer loop
      vertex 114 10 33.3333
      vertex 110 10 35.3333
      vertex 114 10 35.3333
    endloop
  endfacet
  facet normal -1 0 0
    outer loop
      vertex 112 2 16.6667
      vertex 112 2 18.6667
      vertex 112 8 16.6667
    endloop
  endfacet
  facet normal -1 0 0
    outer loop
      vertex 112 8 16.6667
      vertex 112 2 18.6667
      vertex 112 8 18.6667
    endloop
  endfacet
  facet normal 0 -1 0
    outer loop
      vertex 110 8 18.6667
      vertex 110 8 16.6667
      vertex 112 8 16.6667
    endloop
  endfacet
  facet normal 0 -1 0
    outer loop
      vertex 112 8 18.6667
      vertex 110 8 18.6667
      vertex 112 8 16.6667
    endloop
  endfacet
  facet normal -1 0 0
    outer loop
      vertex 110 8 16.6667
      vertex 110 8 18.6667
      vertex 110 10 16.6667
    endloop
  endfacet
  facet normal -1 0 0
    outer loop
      vertex 110 10 16.6667
      vertex 110 8 18.6667
      vertex 110 10 18.6667
    endloop
  endfacet
  facet normal 0 1 0
    outer loop
      vertex 110 10 16.6667
      vertex 110 10 18.6667
      vertex 114 10 16.6667
    endloop
  endfacet
  facet normal 0 1 0
    outer loop
      vertex 114 10 16.6667
      vertex 110 10 18.6667
      vertex 114 10 18.6667
    endloop
  endfacet
  facet normal -6.12303e-017 0 1
    outer loop
      vertex 73.3333 8 0
      vertex 73.3333 2 0
      vertex 75.3333 2 1.22461e-016
    endloop
  endfacet
  facet normal -6.12303e-017 0 1
    outer loop
      vertex 75.3333 8 1.22461e-016
      vertex 73.3333 8 0
      vertex 75.3333 2 1.22461e-016
    endloop
  endfacet
  facet normal 0 -1 0
    outer loop
      vertex 75.3333 8 2
      vertex 73.3333 8 2
      vertex 73.3333 8 0
    endloop
  endfacet
  facet normal 0 -1 0
    outer loop
      vertex 75.3333 8 1.22461e-016
      vertex 75.3333 8 2
      vertex 73.3333 8 0
    endloop
  endfacet
  facet normal -6.12303e-017 0 1
    outer loop
      vertex 73.3333 10 2
      vertex 73.3333 8 2
      vertex 75.3333 8 2
    endloop
  endfacet
  facet normal -6.12303e-017 0 1
    outer loop
      vertex 75.3333 10 2
      vertex 73.3333 10 2
      vertex 75.3333 8 2
    endloop
  endfacet
  facet normal 0 1 0
    outer loop
      vertex 73.3333 10 2
      vertex 75.3333 10 2
      vertex 73.3333 10 -2
    endloop
  endfacet
  facet normal 0 1 0
    outer loop
      vertex 73.3333 10 -2
      vertex 75.3333 10 2
      vertex 75.3333 10 -2
    endloop
  endfacet
  facet normal -6.12303e-017 0 1
    outer loop
      vertex 36.6667 8 0
      vertex 36.6667 2 0
      vertex 38.6667 2 1.22461e-016
    endloop
  endfacet
  facet normal -6.12303e-017 0 1
    outer loop
      vertex 38.6667 8 1.22461e-016
      vertex 36.6667 8 0
      vertex 38.6667 2 1.22461e-016
    endloop
  endfacet
  facet normal 0 -1 0
    outer loop
      vertex 38.6667 8 2
      vertex 36.6667 8 2
      vertex 36.6667 8 0
    endloop
  endfacet
  facet normal 0 -1 0
    outer loop
      vertex 38.6667 8 1.22461e-016
      vertex 38.6667 8 2
      vertex 36.6667 8 0
    endloop
  endfacet
  facet normal -6.12303e-017 0 1
    outer loop
      vertex 36.6667 10 2
      vertex 36.6667 8 2
      vertex 38.6667 8 2
    endloop
  endfacet
  facet normal -6.12303e-017 0 1
    outer loop
      vertex 38.6667 10 2
      vertex 36.6667 10 2
      vertex 38.6667 8 2
    endloop
  endfacet
  facet normal 0 1 0
    outer loop
      vertex 36.6667 10 2
      vertex 38.6667 10 2
      vertex 36.6667 10 -2
    endloop
  endfacet
  facet normal 0 1 0
    outer loop
      vertex 36.6667 10 -2
      vertex 38.6667 10 2
      vertex 38.6667 10 -2
    endloop
  endfacet
  facet normal 0 -1 1.83691e-016
    outer loop
      vertex 48.723 -1.9 26.9674
      vertex 48.723 -1.9 25.0326
      vertex 49.1692 -1.9 23.1498
    endloop
  endfacet
  facet normal 0 -1 1.83691e-016
    outer loop
      vertex 51.2813 -1.9 19.9386
      vertex 48.723 -1.9 26.9674
      vertex 50.0376 -1.9 21.4208
    endloop
  endfacet
  facet normal 0 -1 1.83691e-016
    outer loop
      vertex 50.0376 -1.9 21.4208
      vertex 48.723 -1.9 26.9674
      vertex 49.1692 -1.9 23.1498
    endloop
  endfacet
  facet normal 0 -1 1.83691e-016
    outer loop
      vertex 52.8333 -1.9 18.7831
      vertex 48.723 -1.9 26.9674
      vertex 51.2813 -1.9 19.9386
    endloop
  endfacet
  facet normal 0 -1 1.83691e-016
    outer loop
      vertex 54.61 -1.9 18.0168
      vertex 48.723 -1.9 26.9674
      vertex 52.8333 -1.9 18.7831
    endloop
  endfacet
  facet normal 0 -1 1.83691e-016
    outer loop
      vertex 56.5155 -1.9 17.6808
      vertex 48.723 -1.9 26.9674
      vertex 54.61 -1.9 18.0168
    endloop
  endfacet
  facet normal 0 -1 1.83691e-016
    outer loop
      vertex 58.4471 -1.9 17.7933
      vertex 48.723 -1.9 26.9674
      vertex 56.5155 -1.9 17.6808
    endloop
  endfacet
  facet normal 0 -1 1.83691e-016
    outer loop
      vertex 60.3007 -1.9 18.3482
      vertex 48.723 -1.9 26.9674
      vertex 58.4471 -1.9 17.7933
    endloop
  endfacet
  facet normal 0 -1 1.83691e-016
    outer loop
      vertex 61.9763 -1.9 19.3156
      vertex 48.723 -1.9 26.9674
      vertex 60.3007 -1.9 18.3482
    endloop
  endfacet
  facet normal 0 -1 1.83691e-016
    outer loop
      vertex 63.3837 -1.9 20.6434
      vertex 48.723 -1.9 26.9674
      vertex 61.9763 -1.9 19.3156
    endloop
  endfacet
  facet normal 0 -1 1.83691e-016
    outer loop
      vertex 56.2 -1.9 24.6144
      vertex 48.723 -1.9 26.9674
      vertex 63.3837 -1.9 20.6434
    endloop
  endfacet
  facet normal 0 -1 1.83691e-016
    outer loop
      vertex 64.4469 -1.9 29.74
      vertex 48.723 -1.9 26.9674
      vertex 65.1087 -1.9 27.9218
    endloop
  endfacet
  facet normal 0 -1 1.83691e-016
    outer loop
      vertex 63.3837 -1.9 31.3566
      vertex 48.723 -1.9 26.9674
      vertex 64.4469 -1.9 29.74
    endloop
  endfacet
  facet normal 0 -1 1.83691e-016
    outer loop
      vertex 61.9763 -1.9 32.6844
      vertex 48.723 -1.9 26.9674
      vertex 63.3837 -1.9 31.3566
    endloop
  endfacet
  facet normal 0 -1 1.83691e-016
    outer loop
      vertex 60.3007 -1.9 33.6518
      vertex 48.723 -1.9 26.9674
      vertex 61.9763 -1.9 32.6844
    endloop
  endfacet
  facet normal 0 -1 1.83691e-016
    outer loop
      vertex 58.4471 -1.9 34.2067
      vertex 48.723 -1.9 26.9674
      vertex 60.3007 -1.9 33.6518
    endloop
  endfacet
  facet normal 0 -1 1.83691e-016
    outer loop
      vertex 56.5155 -1.9 34.3192
      vertex 48.723 -1.9 26.9674
      vertex 58.4471 -1.9 34.2067
    endloop
  endfacet
  facet normal 0 -1 1.83691e-016
    outer loop
      vertex 54.61 -1.9 33.9832
      vertex 48.723 -1.9 26.9674
      vertex 56.5155 -1.9 34.3192
    endloop
  endfacet
  facet normal 0 -1 1.83691e-016
    outer loop
      vertex 52.8333 -1.9 33.2169
      vertex 48.723 -1.9 26.9674
      vertex 54.61 -1.9 33.9832
    endloop
  endfacet
  facet normal 0 -1 1.83691e-016
    outer loop
      vertex 51.2813 -1.9 32.0614
      vertex 48.723 -1.9 26.9674
      vertex 52.8333 -1.9 33.2169
    endloop
  endfacet
  facet normal 0 -1 1.83691e-016
    outer loop
      vertex 50.0376 -1.9 30.5792
      vertex 48.723 -1.9 26.9674
      vertex 51.2813 -1.9 32.0614
    endloop
  endfacet
  facet normal 0 -1 1.83691e-016
    outer loop
      vertex 49.1692 -1.9 28.8502
      vertex 48.723 -1.9 26.9674
      vertex 50.0376 -1.9 30.5792
    endloop
  endfacet
  facet normal 0 -1 1.83691e-016
    outer loop
      vertex 64.4469 -1.9 22.26
      vertex 56.2 -1.9 24.6144
      vertex 63.3837 -1.9 20.6434
    endloop
  endfacet
  facet normal 0 -1 1.83691e-016
    outer loop
      vertex 58.6 -1.9 26
      vertex 57.8 -1.9 24.6144
      vertex 65.1087 -1.9 24.0782
    endloop
  endfacet
  facet normal 0 -1 1.83691e-016
    outer loop
      vertex 58.6 -1.9 26
      vertex 65.1087 -1.9 24.0782
      vertex 65.3333 -1.9 26
    endloop
  endfacet
  facet normal 0 -1 1.83691e-016
    outer loop
      vertex 65.1087 -1.9 27.9218
      vertex 48.723 -1.9 26.9674
      vertex 56.2 -1.9 27.3856
    endloop
  endfacet
  facet normal 0 -1 1.83691e-016
    outer loop
      vertex 65.1087 -1.9 27.9218
      vertex 57.8 -1.9 27.3856
      vertex 65.3333 -1.9 26
    endloop
  endfacet
  facet normal 0 -1 1.83691e-016
    outer loop
      vertex 65.1087 -1.9 27.9218
      vertex 56.2 -1.9 27.3856
      vertex 57.8 -1.9 27.3856
    endloop
  endfacet
  facet normal 0 -1 1.83691e-016
    outer loop
      vertex 57.8 -1.9 27.3856
      vertex 58.6 -1.9 26
      vertex 65.3333 -1.9 26
    endloop
  endfacet
  facet normal 0 -1 1.83691e-016
    outer loop
      vertex 65.1087 -1.9 24.0782
      vertex 57.8 -1.9 24.6144
      vertex 64.4469 -1.9 22.26
    endloop
  endfacet
  facet normal 0 -1 1.83691e-016
    outer loop
      vertex 55.4 -1.9 26
      vertex 56.2 -1.9 27.3856
      vertex 48.723 -1.9 26.9674
    endloop
  endfacet
  facet normal 0 -1 1.83691e-016
    outer loop
      vertex 57.8 -1.9 24.6144
      vertex 56.2 -1.9 24.6144
      vertex 64.4469 -1.9 22.26
    endloop
  endfacet
  facet normal 0 -1 1.83691e-016
    outer loop
      vertex 56.2 -1.9 24.6144
      vertex 55.4 -1.9 26
      vertex 48.723 -1.9 26.9674
    endloop
  endfacet
  facet normal 0.866025 9.18455e-017 0.5
    outer loop
      vertex 55.3999 -0.1 23.2286
      vertex 55.3999 2 23.2286
      vertex 53.7999 2 26
    endloop
  endfacet
  facet normal 0.866025 9.18455e-017 0.5
    outer loop
      vertex 53.7999 -0.1 26
      vertex 55.3999 -0.1 23.2286
      vertex 53.7999 2 26
    endloop
  endfacet
  facet normal 0.866025 -9.18455e-017 -0.5
    outer loop
      vertex 53.7999 2 26
      vertex 55.3999 2 28.7714
      vertex 55.3999 -0.1 28.7714
    endloop
  endfacet
  facet normal 0.866025 -9.18455e-017 -0.5
    outer loop
      vertex 53.7999 -0.1 26
      vertex 53.7999 2 26
      vertex 55.3999 -0.1 28.7714
    endloop
  endfacet
  facet normal 0 -1.83691e-016 -1
    outer loop
      vertex 58.6 2 28.7714
      vertex 58.6 -0.1 28.7714
      vertex 55.3999 2 28.7714
    endloop
  endfacet
  facet normal 0 -1.83691e-016 -1
    outer loop
      vertex 55.3999 2 28.7714
      vertex 58.6 -0.1 28.7714
      vertex 55.3999 -0.1 28.7714
    endloop
  endfacet
  facet normal -0.866025 -9.18455e-017 -0.5
    outer loop
      vertex 60.2001 2 26
      vertex 60.2001 -0.1 26
      vertex 58.6 2 28.7714
    endloop
  endfacet
  facet normal -0.866025 -9.18455e-017 -0.5
    outer loop
      vertex 58.6 2 28.7714
      vertex 60.2001 -0.1 26
      vertex 58.6 -0.1 28.7714
    endloop
  endfacet
  facet normal -0.866025 9.18455e-017 0.5
    outer loop
      vertex 60.2001 2 26
      vertex 58.6 2 23.2286
      vertex 60.2001 -0.1 26
    endloop
  endfacet
  facet normal -0.866025 9.18455e-017 0.5
    outer loop
      vertex 60.2001 -0.1 26
      vertex 58.6 2 23.2286
      vertex 58.6 -0.1 23.2286
    endloop
  endfacet
  facet normal 0 1.83691e-016 1
    outer loop
      vertex 58.6 -0.1 23.2286
      vertex 58.6 2 23.2286
      vertex 55.3999 2 23.2286
    endloop
  endfacet
  facet normal 0 1.83691e-016 1
    outer loop
      vertex 55.3999 -0.1 23.2286
      vertex 58.6 -0.1 23.2286
      vertex 55.3999 2 23.2286
    endloop
  endfacet
  facet normal 0 6.12303e-017 1
    outer loop
      vertex 57.8 -1.9 24.6144
      vertex 57.8 -0.1 24.6144
      vertex 56.2 -0.1 24.6144
    endloop
  endfacet
  facet normal 0 6.12303e-017 1
    outer loop
      vertex 56.2 -1.9 24.6144
      vertex 57.8 -1.9 24.6144
      vertex 56.2 -0.1 24.6144
    endloop
  endfacet
  facet normal 0.866025 3.06152e-017 0.5
    outer loop
      vertex 56.2 -1.9 24.6144
      vertex 56.2 -0.1 24.6144
      vertex 55.4 -0.1 26
    endloop
  endfacet
  facet normal 0.866025 3.06152e-017 0.5
    outer loop
      vertex 55.4 -1.9 26
      vertex 56.2 -1.9 24.6144
      vertex 55.4 -0.1 26
    endloop
  endfacet
  facet normal -0.866025 3.06152e-017 0.5
    outer loop
      vertex 58.6 -0.1 26
      vertex 57.8 -0.1 24.6144
      vertex 58.6 -1.9 26
    endloop
  endfacet
  facet normal -0.866025 3.06152e-017 0.5
    outer loop
      vertex 58.6 -1.9 26
      vertex 57.8 -0.1 24.6144
      vertex 57.8 -1.9 24.6144
    endloop
  endfacet
  facet normal -0.866025 -3.06152e-017 -0.5
    outer loop
      vertex 58.6 -0.1 26
      vertex 58.6 -1.9 26
      vertex 57.8 -0.1 27.3856
    endloop
  endfacet
  facet normal -0.866025 -3.06152e-017 -0.5
    outer loop
      vertex 57.8 -0.1 27.3856
      vertex 58.6 -1.9 26
      vertex 57.8 -1.9 27.3856
    endloop
  endfacet
  facet normal 0 -6.12303e-017 -1
    outer loop
      vertex 57.8 -0.1 27.3856
      vertex 57.8 -1.9 27.3856
      vertex 56.2 -0.1 27.3856
    endloop
  endfacet
  facet normal 0 -6.12303e-017 -1
    outer loop
      vertex 56.2 -0.1 27.3856
      vertex 57.8 -1.9 27.3856
      vertex 56.2 -1.9 27.3856
    endloop
  endfacet
  facet normal 0.866025 -3.06152e-017 -0.5
    outer loop
      vertex 55.4 -0.1 26
      vertex 56.2 -0.1 27.3856
      vertex 56.2 -1.9 27.3856
    endloop
  endfacet
  facet normal 0.866025 -3.06152e-017 -0.5
    outer loop
      vertex 55.4 -1.9 26
      vertex 55.4 -0.1 26
      vertex 56.2 -1.9 27.3856
    endloop
  endfacet
  facet normal 0 1 -1.83691e-016
    outer loop
      vertex 58.6 -0.1 28.7714
      vertex 60.2001 -0.1 26
      vertex 55.3999 -0.1 28.7714
    endloop
  endfacet
  facet normal 0 1 -1.83691e-016
    outer loop
      vertex 58.6 -0.1 26
      vertex 60.2001 -0.1 26
      vertex 58.6 -0.1 23.2286
    endloop
  endfacet
  facet normal 0 1 -1.83691e-016
    outer loop
      vertex 56.2 -0.1 24.6144
      vertex 58.6 -0.1 23.2286
      vertex 55.3999 -0.1 23.2286
    endloop
  endfacet
  facet normal 0 1 -1.83691e-016
    outer loop
      vertex 55.3999 -0.1 28.7714
      vertex 55.3999 -0.1 23.2286
      vertex 53.7999 -0.1 26
    endloop
  endfacet
  facet normal 0 1 -1.83691e-016
    outer loop
      vertex 57.8 -0.1 24.6144
      vertex 58.6 -0.1 23.2286
      vertex 56.2 -0.1 24.6144
    endloop
  endfacet
  facet normal 0 1 -1.83691e-016
    outer loop
      vertex 55.4 -0.1 26
      vertex 56.2 -0.1 24.6144
      vertex 55.3999 -0.1 23.2286
    endloop
  endfacet
  facet normal 0 1 -1.83691e-016
    outer loop
      vertex 57.8 -0.1 27.3856
      vertex 60.2001 -0.1 26
      vertex 58.6 -0.1 26
    endloop
  endfacet
  facet normal 0 1 -1.83691e-016
    outer loop
      vertex 56.2 -0.1 27.3856
      vertex 55.3999 -0.1 28.7714
      vertex 57.8 -0.1 27.3856
    endloop
  endfacet
  facet normal 0 1 -1.83691e-016
    outer loop
      vertex 55.3999 -0.1 28.7714
      vertex 60.2001 -0.1 26
      vertex 57.8 -0.1 27.3856
    endloop
  endfacet
  facet normal 0 1 -1.83691e-016
    outer loop
      vertex 55.4 -0.1 26
      vertex 55.3999 -0.1 28.7714
      vertex 56.2 -0.1 27.3856
    endloop
  endfacet
  facet normal 0 1 -1.83691e-016
    outer loop
      vertex 55.3999 -0.1 28.7714
      vertex 55.4 -0.1 26
      vertex 55.3999 -0.1 23.2286
    endloop
  endfacet
  facet normal 0 1 -1.83691e-016
    outer loop
      vertex 58.6 -0.1 26
      vertex 58.6 -0.1 23.2286
      vertex 57.8 -0.1 24.6144
    endloop
  endfacet
endsolid OpenSCAD_Model
